<svg width="30" height="30" viewBox="0 0 30 30" fill="none" xmlns="http://www.w3.org/2000/svg">
<path d="M13.125 24.375C13.125 25.4062 13.9688 26.25 15 26.25C16.0312 26.25 16.875 25.4062 16.875 24.375C16.875 23.3438 16.0312 22.5 15 22.5C13.9688 22.5 13.125 23.3438 13.125 24.375ZM13.125 5.625C13.125 6.65625 13.9688 7.5 15 7.5C16.0312 7.5 16.875 6.65625 16.875 5.625C16.875 4.59375 16.0312 3.75 15 3.75C13.9688 3.75 13.125 4.59375 13.125 5.625ZM13.125 15C13.125 16.0312 13.9688 16.875 15 16.875C16.0312 16.875 16.875 16.0312 16.875 15C16.875 13.9688 16.0312 13.125 15 13.125C13.9688 13.125 13.125 13.9688 13.125 15Z" fill="#3182CE"/>
</svg>
